Format : MPEG-4 Visual
Format profile : Advanced Simple@L5
Format settings, BVOP : 2
Format settings, QPel : Yes
Format settings, GMC : 3 warppoints
Format settings, Matrix : Default (H.263)
Muxing mode : Packed bitstream
Codec ID : XVID
Codec ID/Hint : XviD
Duration : 1h 56mn
Bit rate : 752 Kbps
Width : 592 pixels
Height : 256 pixels
Display aspect ratio : 2.35:1
Frame rate : 25.000 fps
Color space : YUV
Chroma subsampling : 4:2:0
Bit depth : 8 bits
Scan type : Progressive
Compression mode : Lossy
Bits/(Pixel*Frame) : 0.198
Stream size : 628 MiB (91%)


Audio
ID : 1
Format : MPEG Audio
Format version : Version 1
Format profile : Layer 2
Codec ID : 50
Duration : 1h 56mn
Bit rate mode : Constant
Bit rate : 64.0 Kbps
Channel(s) : 2 channels
Sampling rate : 48.0 KHz
Compression mode : Lossy
Stream size : 53.5 MiB (8%)
Alignment : Aligned on interleaves
Interleave, duration : 160 ms (4.00 video frames)